<svg xmlns="http://www.w3.org/2000/svg" viewBox="0 0 500 500">
  <circle cx="250" cy="250" r="250" fill="#4338CA"/>
  <g fill="#FB923C">
    <!-- Runner 1 -->
    <ellipse cx="150" cy="140" rx="20" ry="25"/>
    <rect x="140" y="170" width="20" height="60" rx="10"/>
    <rect x="130" y="180" width="15" height="30" rx="7"/>
    <rect x="165" y="185" width="15" height="25" rx="7"/>
    <ellipse cx="145" cy="250" rx="8" ry="15"/>
    <ellipse cx="155" cy="250" rx="8" ry="15"/>
    <ellipse cx="145" cy="280" rx="12" ry="20"/>
    <ellipse cx="155" cy="285" rx="12" ry="20"/>
    
    <!-- Runner 2 -->
    <ellipse cx="250" cy="120" rx="20" ry="25"/>
    <rect x="240" y="150" width="20" height="60" rx="10"/>
    <rect x="225" y="160" width="15" height="30" rx="7"/>
    <rect x="260" y="165" width="15" height="25" rx="7"/>
    <ellipse cx="245" cy="230" rx="8" ry="15"/>
    <ellipse cx="255" cy="230" rx="8" ry="15"/>
    <ellipse cx="245" cy="260" rx="12" ry="20"/>
    <ellipse cx="255" cy="265" rx="12" ry="20"/>
    
    <!-- Runner 3 -->
    <ellipse cx="350" cy="160" rx="20" ry="25"/>
    <rect x="340" y="190" width="20" height="60" rx="10"/>
    <rect x="325" y="200" width="15" height="30" rx="7"/>
    <rect x="360" y="205" width="15" height="25" rx="7"/>
    <ellipse cx="345" cy="270" rx="8" ry="15"/>
    <ellipse cx="355" cy="270" rx="8" ry="15"/>
    <ellipse cx="345" cy="300" rx="12" ry="20"/>
    <ellipse cx="355" cy="305" rx="12" ry="20"/>
  </g>
  <!-- Finish line -->
  <path d="M100 290c100 0 200-20 300 0" stroke="white" stroke-width="8" fill="none"/>
</svg>
